<?xml version="1.0" standalone="no"?>
<!DOCTYPE svg PUBLIC "-//W3C//DTD SVG 20010904//EN"
 "http://www.w3.org/TR/2001/REC-SVG-20010904/DTD/svg10.dtd">
<svg version="1.0" xmlns="http://www.w3.org/2000/svg"
 width="1948.000000pt" height="1472.000000pt" viewBox="0 0 1948.000000 1472.000000"
 preserveAspectRatio="xMidYMid meet">

<g transform="translate(0.000000,1472.000000) scale(0.100000,-0.100000)"
fill="#000000" stroke="none">
<path d="M13420 11493 c-310 -13 -599 -97 -820 -238 -350 -225 -608 -599 -701
-1018 -64 -287 -64 -657 0 -944 118 -531 495 -978 973 -1153 199 -73 374 -103
608 -102 495 1 887 160 1200 488 136 142 238 307 320 515 28 70 50 130 50 133
0 3 -119 6 -264 6 l-265 0 -52 -101 c-150 -286 -402 -475 -709 -530 -83 -15
-320 -14 -430 1 -501 68 -838 392 -947 910 -26 121 -26 488 0 610 54 256 155
451 317 612 87 86 188 160 265 193 192 83 287 103 518 112 311 11 492 -38 698
-191 132 -98 232 -223 310 -390 l31 -66 264 0 c182 0 264 3 264 11 0 16 -85
229 -115 290 -178 351 -486 622 -855 754 -183 66 -455 106 -660 98z"/>
<path d="M7423 11124 c-79 -17 -177 -62 -254 -116 -168 -117 -286 -354 -277
-553 l3 -70 -640 -92 c-352 -50 -650 -92 -662 -92 -17 -1 -32 14 -59 57 -60
94 -153 176 -258 227 -115 57 -188 75 -297 75 -250 0 -453 -111 -588 -320 -92
-142 -124 -342 -82 -510 11 -47 34 -111 50 -143 l30 -57 -551 -565 c-302 -311
-553 -565 -556 -565 -4 0 -39 7 -77 15 -142 30 -274 11 -424 -62 -78 -37 -109
-59 -177 -127 -68 -69 -89 -98 -127 -177 -56 -117 -71 -179 -71 -294 1 -121
17 -192 71 -305 39 -81 58 -108 132 -180 63 -63 106 -95 161 -123 194 -96 403
-102 591 -16 l66 31 884 -535 884 -535 6 -108 c12 -188 70 -317 203 -449 88
-88 170 -137 291 -175 104 -32 272 -31 377 3 93 30 187 81 250 137 27 23 53
38 59 34 17 -10 2540 -2153 2571 -2183 27 -26 27 -26 12 -81 -42 -156 -24
-310 53 -469 82 -172 251 -308 438 -356 73 -19 250 -21 320 -5 78 19 213 86
271 134 174 143 261 336 252 557 l-4 100 866 1341 865 1340 100 3 c183 5 342
78 472 218 362 388 150 1032 -371 1127 -77 14 -243 9 -290 -9 -16 -7 -33 -8
-37 -4 -4 4 -228 392 -498 861 l-490 852 30 65 c79 176 79 392 -1 564 -125
267 -407 426 -691 390 -151 -19 -281 -78 -389 -178 -30 -28 -56 -51 -58 -51
-11 0 -1539 603 -1546 610 -5 5 -8 43 -7 84 11 382 -300 699 -684 695 -44 -1
-108 -7 -142 -15z m-435 -1009 c19 -33 73 -97 119 -143 l83 -83 -351 -547
c-194 -301 -357 -552 -363 -559 -8 -9 -27 -6 -80 12 -132 45 -285 42 -429 -7
-32 -11 -60 -18 -61 -17 -36 46 -446 628 -446 633 0 4 18 28 39 54 54 65 95
143 123 232 18 60 23 98 23 192 l0 118 40 5 c477 71 1208 173 1234 172 31 -2
38 -8 69 -62z m1947 -246 c407 -160 744 -295 748 -299 5 -4 -1 -38 -12 -75
-31 -100 -37 -214 -17 -315 18 -84 58 -187 95 -239 12 -16 21 -34 21 -39 0 -6
-162 -150 -361 -321 l-360 -311 -45 30 c-71 50 -184 99 -264 116 -72 15 -186
15 -265 -1 l-30 -6 -258 736 -258 737 23 16 c52 36 153 141 190 200 23 34 43
62 47 62 3 0 338 -131 746 -291z m-1466 -79 c68 -13 163 -12 220 1 24 5 45 8
48 6 5 -6 513 -1454 513 -1465 0 -5 -12 -18 -27 -28 -76 -49 -196 -189 -222
-257 -8 -22 -15 -26 -33 -22 -13 3 -261 50 -553 105 -291 55 -534 102 -539
103 -5 2 -17 36 -27 77 -26 103 -81 208 -146 279 -30 33 -53 67 -51 75 2 7
167 268 368 580 263 408 369 564 380 561 8 -3 39 -9 69 -15z m-2878 -467 c171
-122 389 -152 590 -82 46 16 90 31 98 32 13 2 451 -595 451 -616 0 -5 -20 -32
-45 -60 -91 -101 -148 -225 -169 -367 l-12 -84 -859 -138 c-473 -76 -868 -138
-877 -138 -10 0 -18 7 -18 15 0 33 -43 143 -82 209 -23 39 -72 101 -110 139
-38 38 -68 72 -66 77 2 4 234 244 517 534 311 319 518 523 525 519 6 -4 32
-22 57 -40z m6654 -1358 l464 -808 -77 -76 c-88 -86 -141 -167 -179 -273 -22
-61 -27 -93 -29 -196 l-3 -124 -461 -280 -462 -281 -26 34 c-96 128 -254 230
-408 264 -96 22 -241 16 -331 -13 -46 -14 -65 -17 -72 -8 -10 12 -547 996
-563 1031 -9 19 -3 31 39 84 167 207 200 499 84 730 -17 33 -31 63 -31 65 0 3
165 147 366 322 l366 317 37 -22 c116 -70 224 -101 356 -102 145 -1 273 37
386 116 35 24 67 41 72 36 5 -5 217 -372 472 -816z m-3822 -43 l508 -97 4
-100 c3 -115 20 -176 77 -293 40 -80 41 -83 22 -97 -10 -7 -350 -264 -754
-569 -404 -306 -739 -555 -743 -553 -5 1 -22 34 -38 72 -57 136 -177 265 -306
329 -32 16 -63 33 -69 38 -9 6 10 115 67 396 43 213 81 396 83 407 4 16 21 24
78 38 232 54 426 238 493 470 15 51 19 57 43 56 15 0 256 -44 535 -97z m-1834
-75 c77 -162 249 -309 412 -351 34 -8 55 -19 57 -29 3 -12 -119 -646 -144
-753 -5 -19 -14 -22 -92 -27 -205 -12 -392 -124 -513 -305 -28 -42 -52 -78
-54 -80 -4 -4 -1625 975 -1642 991 -9 9 0 30 38 87 47 70 99 203 99 251 0 11
7 22 16 26 21 8 1721 281 1754 282 22 0 31 -11 69 -92z m2689 -686 c115 -68
187 -86 337 -86 116 0 138 3 205 28 41 15 79 28 84 29 11 3 575 -1019 575
-1042 1 -9 -18 -34 -40 -55 -62 -60 -131 -171 -158 -255 -13 -41 -27 -82 -30
-91 -5 -13 -162 0 -1346 114 -737 71 -1344 133 -1349 137 -4 5 2 17 15 28 56
48 1625 1232 1632 1232 5 0 39 -18 75 -39z m3245 -923 c66 -103 163 -194 255
-242 17 -9 32 -21 32 -27 0 -9 -1450 -2260 -1572 -2442 l-39 -57 -38 47 c-88
112 -224 205 -348 239 -61 16 -64 19 -58 43 3 14 61 264 128 555 l122 530 90
26 c212 62 351 176 441 364 60 125 75 251 52 443 -3 19 57 59 447 297 248 151
451 275 452 276 1 0 18 -24 36 -52z m-3641 -638 c734 -71 1342 -130 1350 -130
10 0 20 -22 31 -67 53 -216 223 -408 424 -479 37 -13 76 -24 86 -24 9 0 17 -6
17 -14 0 -21 -249 -1098 -255 -1105 -4 -3 -33 -11 -67 -18 -116 -24 -244 -96
-335 -191 -29 -29 -57 -51 -62 -47 -26 15 -2576 2187 -2579 2195 -2 6 10 10
26 10 16 0 630 -58 1364 -130z"/>
</g>
</svg>
